<?xml version="1.0" encoding="UTF-8"?>
<svg id="Layer_2" data-name="Layer 2" xmlns="http://www.w3.org/2000/svg" viewBox="0 0 46.62 46.66">
  <defs>
    <style>
      .cls-1 {
        fill: #fff;
      }

      .cls-2 {
        fill: none;
      }
    </style>
  </defs>
  <g id="Layer_1-2" data-name="Layer 1">
    <g>
      <rect class="cls-2" y=".02" width="46.62" height="46.62"/>
      <g id="grab">
        <path class="cls-1" d="M25.58,19.61l-.26-13.69v-1.92c0-1.31-1.26-2.33-2.64-1.9-.85.26-1.36,1.13-1.36,2.01l-.07,15.53c0,.62-.82.98-1.14.2l-4.66-13.31c-.25-.83-1.05-1.43-1.92-1.43-.31,0-.61.07-.89.21-.9.44-1.27,1.54-.98,2.5l2.21,7.39v.03s.01.03.01.03c2.03,7.51,1.91,7.41,1.34,8.42,0,0-.34.48-.69.63-.35.15-.9.16-.9.16-.32,0-.98-.08-1.5-.68-.11-.13-2.21-2.35-2.21-2.35-.38-.4-.89-.62-1.43-.62-.38,0-.76.11-1.08.32-.71.45-1.05,1.32-.85,2.15l.04.17s.01.03.02.05l.03.09c.17.48.34.86.51,1.16.48.86.85,1.48,2.12,3.4,1.86,2.8,3.91,5.99,4.99,8.43l.35.78c.89,1.97,1.73,3.85,2.15,5.55,0,0,0,.02.01.02,1.07.56,3.92,1.71,8.03,1.71,3.82,0,6.46-1.12,7.74-1.83,0,0,.01,0,.01-.02,1.35-3.23,2.05-4.49,2.85-5.94.69-1.26,1.17-2.66,1.75-5.17.47-2.02.5-3.16.55-5.04l.03-.98c.06-1.9.19-2.6.44-3.86.11-.57.25-1.28.43-2.32v-.06s.02-.06.02-.06l1.42-6.2c.12-.52.03-1.06-.26-1.51-.28-.45-.73-.77-1.25-.89-.15-.03-.3-.05-.45-.05-.68,0-1.31.34-1.68.91l-4.18,8.99c-.21.33-.72.15-.68-.24l1.19-10.07.35-2.97c.13-1.1-.66-2.09-1.75-2.22-.07,0-.15-.01-.23-.01-.88,0-1.65.56-1.91,1.4l-2.8,13.22c-.15.47-.85.37-.85-.13Z"/>
        <path d="M19.57,12.56l-2.2-6.59c-.5-1.68-2.08-2.85-3.83-2.85-.93,0-1.85.32-2.61.95-1.25,1.03-1.65,2.78-1.19,4.33l2.21,7.4s0,0,0,0c1.18,4.37,1.56,5.95,1.66,6.46.03.16-.08.02-.08.02,0,0-.91-1.22-2.17-2.23h0c-.75-.77-1.77-1.23-2.88-1.23h0c-.77,0-1.51.22-2.16.63-1.47.94-2.1,2.69-1.71,4.3v.02s.03.15.11.37c.02.05.04.11.06.16.14.39.35.92.63,1.42.5.9.88,1.55,2.2,3.54,1.32,1.99,3.71,5.62,4.83,8.14,1.13,2.52,2.24,4.85,2.54,6.71,0,0,0,.01,0,.02.46.54,4.25,2.52,9.83,2.52s8.85-2.15,9.34-2.45c0,0,0,0,.01-.01,1.48-3.58,2.18-4.85,3.01-6.36.83-1.51,1.35-3.11,1.95-5.68s.55-3.86.62-6.42c.08-2.56.28-2.57.84-5.91,0,0,0,0,0,0l1.39-6.08c.17-.75.18-1.54-.07-2.27-.47-1.37-1.56-2.33-2.91-2.64-.3-.07-.6-.1-.89-.1h0c-1.35,0-2.56.67-3.29,1.72-.02.03-.06.01-.05-.02l.33-2.82c.26-2.16-1.24-4.17-3.39-4.46-.2-.03-.39-.04-.57-.04h0c-1.72,0-3.2,1.08-3.77,2.64-.01.03-.06.03-.06,0v-1.54c0-.79-.22-1.55-.6-2.21-.63-1.08-1.72-1.86-3.03-1.98-1.63-.15-3.06.7-3.81,1.98-.35.59-.56,1.27-.56,2l.25,8.56ZM29.23,6.52c.26-.84,1.03-1.4,1.91-1.4.08,0,.16,0,.23.01,1.1.13,1.88,1.13,1.75,2.22l-.35,2.97-1.19,10.07c-.05.39.47.57.68.24l4.18-8.99c.37-.57.99-.91,1.68-.91.15,0,.3.02.45.05.52.12.96.43,1.25.89.28.45.37.99.26,1.51l-1.42,6.2v.06s-.02.06-.02.06c-.18,1.04-.32,1.76-.43,2.32-.25,1.26-.38,1.95-.44,3.86l-.03.98c-.05,1.88-.07,3.02-.55,5.04-.59,2.51-1.06,3.91-1.75,5.17-.8,1.45-1.5,2.72-2.85,5.94,0,0,0,.01-.01.02-1.29.71-3.92,1.83-7.74,1.83-4.1,0-6.96-1.14-8.03-1.71,0,0-.01-.01-.01-.02-.42-1.7-1.27-3.58-2.15-5.55l-.35-.78c-1.09-2.44-3.14-5.63-4.99-8.43-1.28-1.92-1.64-2.54-2.12-3.4-.17-.3-.34-.69-.51-1.16l-.03-.09s-.01-.03-.02-.05l-.04-.17c-.2-.83.14-1.7.85-2.15.32-.21.7-.32,1.08-.32.54,0,1.05.22,1.43.62,0,0,2.09,2.22,2.21,2.35.52.6,1.18.68,1.5.68,0,0,.55-.01.9-.16.35-.15.69-.63.69-.63.57-1.01.7-.91-1.34-8.42v-.03s-.01-.03-.01-.03l-2.21-7.39c-.29-.96.08-2.06.98-2.5.28-.14.59-.21.89-.21.86,0,1.67.6,1.92,1.43l4.66,13.31c.32.77,1.14.42,1.14-.2l.07-15.53c0-.89.52-1.75,1.36-2.01,1.37-.43,2.64.59,2.64,1.9v1.92l.26,13.69c0,.5.7.6.85.13l2.8-13.22Z"/>
      </g>
    </g>
  </g>
</svg>