<?xml version="1.0" encoding="UTF-8"?>
<svg id="Layer_2" data-name="Layer 2" xmlns="http://www.w3.org/2000/svg" viewBox="0 0 46.62 46.62">
  <defs>
    <style>
      .cls-1 {
        fill: #fff;
      }

      .cls-2 {
        fill: none;
      }
    </style>
  </defs>
  <g id="Layer_1-2" data-name="Layer 1">
    <g>
      <rect class="cls-2" width="46.62" height="46.62"/>
      <g id="grabbing">
        <path class="cls-1" d="M33.33,21.69v2.93c0,.55-.45,1-1,1s-1-.45-1-1v-4c0-.12-.04-3-2-3h-2v6c0,.55-.45,1-1,1s-1-.45-1-1v-7c-.01-.14-.16-1-1.99-1-2.01,0-2.01.16-2.01,3.14h0v4.86c0,.55-.45,1-1,1s-1-.45-1-1l-.02-6.11c-.37,0-.84.02-1.46.02-2.72,0-2.51,1.72-2.52,2.19v7.9c-1,0-1.22-.4-1.32-.56-.45-.82-.57-.97-.57-.97-.85-1.7-1.78-2.05-2.63-2.03-.53.03-1.37.47-1.97,1.18-.69.82-1.09,1.95,1.02,5.3.81,1.2.42.84,1.36,2.4,3.13,5.2,4.97,8.65,5.32,9.92.85.47,3.52,1.76,7.84,1.76s7.16-1.34,7.96-1.79c.39-.97,1.69-3.98,4.1-8.16,2.29-3.96,2.26-10.27,1.19-11.34-1.12-1.13-3.1-1.51-4.29-1.64Z"/>
        <path d="M33.26,19.67s0-.04-.01-.07c-.05-.35-.14-.71-.26-1.08-.49-1.47-1.56-2.9-3.66-2.9h-2.22c-.41-.96-1.24-2-3.54-2h0s0,0,0,0c-1.59,0-3.4.13-4.06,2-.5,0-.65,0-1.63,0-3.43,0-4.55,1.99-4.55,4.09v2.94c-.68-.44-1.59-.65-2.93-.52-.85.08-1.9.5-3.05,1.79-1.66,1.86-1.05,4.4-.29,6.02.79,1.18,1.54,2.52,2.45,4.03,3.54,5.89,5.18,9.72,5.19,9.76l.09.37.31.22c.13.09,3.31,2.31,9.28,2.31s9.2-2.19,9.33-2.28l.26-.18.11-.29s1.29-3.34,4.09-8.2c2.46-4.25,2.93-11.7.88-13.76-1.65-1.65-4.36-2.11-5.78-2.24ZM36.43,34.67c-2.41,4.18-3.71,7.19-4.1,8.16-.8.45-3.56,1.79-7.96,1.79s-6.99-1.29-7.84-1.76c-.35-1.27-2.19-4.72-5.32-9.92-.94-1.56-.55-1.2-1.36-2.4-2.1-3.34-1.71-4.48-1.02-5.3.61-.71,1.45-1.15,1.97-1.18.85-.02,1.78.33,2.63,2.03,0,0,.12.15.57.97.1.16.32.56,1.32.56v-7.9c.01-.47-.19-2.19,2.52-2.19.62,0,1.09-.01,1.46-.02l.02,6.11c0,.55.45,1,1,1s1-.45,1-1v-4.86h0c0-2.98,0-3.14,2.01-3.14,1.83,0,1.98.86,1.99,1v7c0,.55.45,1,1,1s1-.45,1-1v-6h2c1.96,0,2,2.88,2,3v4c0,.55.45,1,1,1s1-.45,1-1v-2.93c1.19.13,3.17.51,4.29,1.64,1.07,1.07,1.1,7.38-1.19,11.34Z"/>
      </g>
    </g>
  </g>
</svg>