<?xml version="1.0" encoding="UTF-8"?><svg id="b" xmlns="http://www.w3.org/2000/svg" width="1174.06" height="1174.06" xmlns:xlink="http://www.w3.org/1999/xlink" viewBox="0 0 1174.06 1174.06"><defs><clipPath id="d"><rect x="94.06" y="94.06" width="1080" height="1080" style="fill:none;"/></clipPath><linearGradient id="g" x1="357.42" y1="357.42" x2="910.7" y2="910.7" gradientUnits="userSpaceOnUse"><stop offset="0" stop-color="#4a4a4a"/><stop offset="1" stop-color="#252525"/></linearGradient><linearGradient id="h" x1="357.42" y1="357.42" x2="910.7" y2="910.7" gradientUnits="userSpaceOnUse"><stop offset="0" stop-color="#8b81ff"/><stop offset="1" stop-color="#6571e5"/></linearGradient><linearGradient id="j" x1="387.9" y1="387.96" x2="881.01" y2="881.07" xlink:href="#g"/><linearGradient id="l" x1="600.72" y1="661.56" x2="710.69" y2="771.53" gradientUnits="userSpaceOnUse"><stop offset="0" stop-color="#8b81ff"/><stop offset="1" stop-color="#655def"/></linearGradient><clipPath id="n"><rect x="179.65" y="27.45" width="398.35" height="646.93" transform="translate(-127.5 452.33) rotate(-54.14)" style="fill:none;"/></clipPath><linearGradient id="p" x1="98.25" y1="380.14" x2="673.55" y2="380.14" gradientUnits="userSpaceOnUse"><stop offset="0" stop-color="#796fe1"/><stop offset="1" stop-color="#615be5"/></linearGradient><linearGradient id="q" x1="136.87" y1="342" x2="673.55" y2="342" xlink:href="#h"/></defs><g id="c"><g style="clip-path:url(#d);"><g id="e"><g id="f"><rect x="353.84" y="291.92" width="560.44" height="684.29" rx="117.59" ry="117.59" style="fill:url(#g);"/><rect x="353.84" y="291.92" width="560.44" height="684.29" rx="117.59" ry="117.59" style="fill:url(#h);"/></g><g id="i"><rect x="397.08" y="335.23" width="474.76" height="598.58" rx="74.15" ry="74.15" style="fill:url(#j);"/></g><g id="k"><path d="M634.57,930.28v-209.45c0-13.98,11.44-25.42,25.42-25.42h209.45l-234.87,234.87Z" style="fill:url(#l);"/><path d="M869.44,695.41l-234.87,234.87-3.52,3.52h166.64c40.78,0,74.15-33.37,74.15-74.15v-166.64l-2.39,2.39Z" style="fill:#292929;"/></g></g><g id="m"><g style="clip-path:url(#n);"><g id="o"><path d="M136.41,201.44c-19.95,29.87-46.12,76.99-35.86,110.67,3.48,11.41,13.99,17.75,26.5,26.11l1.07.71c20.86,13.93,49.33,8.27,63.26-12.59l2.37-3.55,24.02,20.4c11.13,17.05,25.8,32.18,43.8,44.2,7.55,5.04,15.38,9.33,23.41,12.89l26.07,22.15c-13.37,60.21,14.05,97.22,34.56,110.91,24.8,16.57,70.85-18.29,114.87-76.29,0,.01-.02.02-.02.04,93.73,62.61,213.1,102.28,213.1,102.28l-193.78-129.44c-46.55-31.1-81.34-54.33-128.23-85.65l-3.68-2.46-115.35-77.05-6.2-4.14-89.43-59.74-.46.55Z" style="fill:url(#p);"/><path d="M523.93,266.4c-20.5-13.7-65.19-24.86-115.69,10.55l-30.44-15.6c-6.36-6.05-13.32-11.64-20.87-16.68-18-12.02-37.6-19.79-57.6-23.54l-28.05-14.37,2.37-3.55c13.93-20.86,8.27-49.33-12.59-63.26l-1.07-.71c-12.51-8.36-22.39-15.64-34.27-14.48-35.04,3.42-68.55,45.63-88.5,75.5l-.33.64,89.43,59.74,6.2,4.14,115.35,77.05,3.68,2.46c46.89,31.32,81.68,54.56,128.23,85.65l193.78,129.44s-82.36-95.09-176.09-157.69c0,.01-.02.02-.02.04,36.73-62.87,51.29-118.76,26.49-135.33Z" style="fill:url(#q);"/></g></g></g></g></g></svg>